<svg width="18" height="19" viewBox="0 0 18 19" fill="none" xmlns="http://www.w3.org/2000/svg">
<g clip-path="url(#clip0_847_3129)">
<path fill-rule="evenodd" clip-rule="evenodd" d="M17.0303 1.12008C17.2341 1.32381 17.3031 1.62623 17.2079 1.89817L11.9579 16.8982C11.8563 17.1884 11.5878 17.3873 11.2806 17.3998C10.9733 17.4123 10.6895 17.236 10.5646 16.955L7.6818 10.4686L1.1954 7.58577C0.91439 7.46088 0.738092 7.1771 0.750627 6.86984C0.763163 6.56258 0.961991 6.29411 1.25224 6.19252L16.2522 0.942518C16.5242 0.847339 16.8266 0.916353 17.0303 1.12008ZM9.14456 10.0665L11.1671 14.6171L14.7064 4.50468L9.14456 10.0665ZM13.6457 3.44401L3.53331 6.98337L8.0839 9.00585L13.6457 3.44401Z" fill="white"/>
</g>
<defs>
<clipPath id="clip0_847_3129">
<rect width="18" height="18" fill="white" transform="translate(0 0.150391)"/>
</clipPath>
</defs>
</svg>
