<svg width="48" height="48" viewBox="0 0 48 48" fill="none" xmlns="http://www.w3.org/2000/svg">
<path d="M6 28H26M24 28V36C24 36.5305 23.7893 37.0392 23.4142 37.4143C23.0391 37.7893 22.5304 38 22 38H10C9.46957 38 8.96086 37.7893 8.58579 37.4143C8.21071 37.0392 8 36.5305 8 36V28M8 24L24 20M12.86 22.78L12.41 20.97C12.3455 20.7153 12.3319 20.4503 12.3699 20.1903C12.4079 19.9302 12.4967 19.6802 12.6314 19.4545C12.7661 19.2289 12.9439 19.0319 13.1547 18.875C13.3655 18.7181 13.6052 18.6043 13.86 18.54L15.8 18.06C16.0554 17.9957 16.3211 17.9825 16.5816 18.0211C16.8422 18.0598 17.0926 18.1495 17.3184 18.2851C17.5441 18.4208 17.7409 18.5997 17.8974 18.8117C18.0538 19.0236 18.1669 19.2643 18.23 19.52L18.68 21.32" stroke="black" stroke-width="2" stroke-linecap="round" stroke-linejoin="round"/>
</svg>
