<svg width="48" height="48" viewBox="0 0 48 48" fill="none" xmlns="http://www.w3.org/2000/svg">
<path d="M10.168 22C9.63754 22 9.12883 22.2107 8.75376 22.5858C8.37868 22.9609 8.16797 23.4696 8.16797 24V34C8.16797 34.5304 8.37868 35.0391 8.75376 35.4142C9.12883 35.7893 9.63754 36 10.168 36H26.168C26.6984 36 27.2071 35.7893 27.5822 35.4142C27.9573 35.0391 28.168 34.5304 28.168 34V24C28.168 23.4696 27.9573 22.9609 27.5822 22.5858C27.2071 22.2107 26.6984 22 26.168 22H10.168ZM10.168 24H22.168V34H10.168V24ZM25.168 24C25.4332 24 25.6875 24.1054 25.8751 24.2929C26.0626 24.4804 26.168 24.7348 26.168 25C26.168 25.2652 26.0626 25.5196 25.8751 25.7071C25.6875 25.8946 25.4332 26 25.168 26C24.9028 26 24.6484 25.8946 24.4609 25.7071C24.2733 25.5196 24.168 25.2652 24.168 25C24.168 24.7348 24.2733 24.4804 24.4609 24.2929C24.6484 24.1054 24.9028 24 25.168 24ZM19.168 26V32H21.168V26H19.168ZM25.168 28C25.4332 28 25.6875 28.1054 25.8751 28.2929C26.0626 28.4804 26.168 28.7348 26.168 29C26.168 29.2652 26.0626 29.5196 25.8751 29.7071C25.6875 29.8946 25.4332 30 25.168 30C24.9028 30 24.6484 29.8946 24.4609 29.7071C24.2733 29.5196 24.168 29.2652 24.168 29C24.168 28.7348 24.2733 28.4804 24.4609 28.2929C24.6484 28.1054 24.9028 28 25.168 28Z" fill="black"/>
</svg>
