<svg width="49" height="48" viewBox="0 0 49 48" fill="none" xmlns="http://www.w3.org/2000/svg">
<g clip-path="url(#clip0_781_5462)">
<path d="M26 28V36C26 36.5304 25.7893 37.0391 25.4142 37.4142C25.0391 37.7893 24.5304 38 24 38H8C7.46957 38 6.96086 37.7893 6.58579 37.4142C6.21071 37.0391 6 36.5304 6 36V28C5.73478 28 5.48043 27.8946 5.29289 27.7071C5.10536 27.5196 5 27.2652 5 27V24C5 23.4696 5.21071 22.9609 5.58579 22.5858C5.96086 22.2107 6.46957 22 7 22H10.17C10.057 21.6787 9.99949 21.3406 10 21C10 20.2044 10.3161 19.4413 10.8787 18.8787C11.4413 18.3161 12.2044 18 13 18C14 18 14.88 18.5 15.43 19.24V19.23L16 20L16.57 19.23V19.24C17.12 18.5 18 18 19 18C19.7956 18 20.5587 18.3161 21.1213 18.8787C21.6839 19.4413 22 20.2044 22 21C22.0005 21.3406 21.943 21.6787 21.83 22H25C25.5304 22 26.0391 22.2107 26.4142 22.5858C26.7893 22.9609 27 23.4696 27 24V27C27 27.2652 26.8946 27.5196 26.7071 27.7071C26.5196 27.8946 26.2652 28 26 28ZM8 36H15V28H8V36ZM24 36V28H17V36H24ZM13 20C12.7348 20 12.4804 20.1054 12.2929 20.2929C12.1054 20.4804 12 20.7348 12 21C12 21.2652 12.1054 21.5196 12.2929 21.7071C12.4804 21.8946 12.7348 22 13 22C13.2652 22 13.5196 21.8946 13.7071 21.7071C13.8946 21.5196 14 21.2652 14 21C14 20.7348 13.8946 20.4804 13.7071 20.2929C13.5196 20.1054 13.2652 20 13 20ZM19 20C18.7348 20 18.4804 20.1054 18.2929 20.2929C18.1054 20.4804 18 20.7348 18 21C18 21.2652 18.1054 21.5196 18.2929 21.7071C18.4804 21.8946 18.7348 22 19 22C19.2652 22 19.5196 21.8946 19.7071 21.7071C19.8946 21.5196 20 21.2652 20 21C20 20.7348 19.8946 20.4804 19.7071 20.2929C19.5196 20.1054 19.2652 20 19 20ZM7 24V26H15V24H7ZM17 24V26H25V24H17Z" fill="black"/>
</g>
<defs>
<clipPath id="clip0_781_5462">
<rect width="24" height="24" fill="white" transform="translate(4.5 16)"/>
</clipPath>
</defs>
</svg>
