<svg width="49" height="48" viewBox="0 0 49 48" fill="none" xmlns="http://www.w3.org/2000/svg">
<path d="M13 18C11.8861 18 10.8178 18.5531 10.0302 19.5377C9.2425 20.5223 8.8 21.8576 8.8 23.25H11.2C11.2 22.6533 11.3896 22.081 11.7272 21.659C12.0648 21.2371 12.5226 21 13 21C13.4774 21 13.9352 21.2371 14.2728 21.659C14.6104 22.081 14.8 22.6533 14.8 23.25C14.8 23.8467 14.6104 24.419 14.2728 24.841C13.9352 25.2629 13.4774 25.5 13 25.5C12.34 25.5 11.8 26.175 11.8 27V29.625L1.48 39.3C1.27851 39.4889 1.12968 39.7522 1.05458 40.0527C0.979488 40.3533 0.981935 40.6757 1.06158 40.9743C1.14122 41.273 1.29403 41.5328 1.49835 41.7169C1.70267 41.9009 1.94814 42 2.2 42H23.8C24.0519 42 24.2973 41.9009 24.5017 41.7169C24.706 41.5328 24.8588 41.273 24.9384 40.9743C25.0181 40.6757 25.0205 40.3533 24.9454 40.0527C24.8703 39.7522 24.7215 39.4889 24.52 39.3L14.2 29.625V28.275C15.066 27.9523 15.8256 27.289 16.366 26.3838C16.9065 25.4785 17.1989 24.3795 17.2 23.25C17.2 21.8576 16.7575 20.5223 15.9698 19.5377C15.1822 18.5531 14.1139 18 13 18ZM13 32.25L20.2 39H5.8L13 32.25Z" fill="black"/>
</svg>
