<svg width="32" height="33" viewBox="0 0 32 33" fill="none" xmlns="http://www.w3.org/2000/svg">
<path opacity="0.1" fill-rule="evenodd" clip-rule="evenodd" d="M0 16.1504C0 7.31384 7.16344 0.150391 16 0.150391C24.8366 0.150391 32 7.31384 32 16.1504C32 24.9869 24.8366 32.1504 16 32.1504C7.16344 32.1504 0 24.9869 0 16.1504Z" fill="white"/>
<path fill-rule="evenodd" clip-rule="evenodd" d="M15.999 7.61719C13.6814 7.61719 13.3906 7.62732 12.4804 7.66874C11.5719 7.71034 10.9518 7.85417 10.4092 8.06519C9.84798 8.28315 9.37189 8.57471 8.89757 9.0492C8.4229 9.52352 8.13134 9.99961 7.91267 10.5607C7.70111 11.1034 7.55711 11.7237 7.51622 12.6318C7.47551 13.542 7.46484 13.8331 7.46484 16.1506C7.46484 18.4681 7.47515 18.7581 7.5164 19.6683C7.55818 20.5768 7.702 21.1969 7.91285 21.7395C8.13098 22.3007 8.42254 22.7768 8.89704 23.2511C9.37117 23.7258 9.84727 24.0181 10.4082 24.236C10.9511 24.4471 11.5714 24.5909 12.4797 24.6325C13.3899 24.6739 13.6806 24.684 15.9979 24.684C18.3156 24.684 18.6056 24.6739 19.5158 24.6325C20.4243 24.5909 21.0451 24.4471 21.588 24.236C22.1491 24.0181 22.6245 23.7258 23.0986 23.2511C23.5733 22.7768 23.8648 22.3007 24.0835 21.7396C24.2933 21.1969 24.4373 20.5766 24.48 19.6685C24.5208 18.7583 24.5315 18.4681 24.5315 16.1506C24.5315 13.8331 24.5208 13.5422 24.48 12.632C24.4373 11.7235 24.2933 11.1034 24.0835 10.5609C23.8648 9.99961 23.5733 9.52352 23.0986 9.0492C22.6239 8.57453 22.1493 8.28297 21.5875 8.06519C21.0435 7.85417 20.423 7.71034 19.5146 7.66874C18.6043 7.62732 18.3146 7.61719 15.9963 7.61719H15.999ZM15.2334 9.15496C15.4606 9.1546 15.7141 9.15496 15.9989 9.15496C18.2774 9.15496 18.5474 9.16314 19.4472 9.20402C20.2792 9.24207 20.7307 9.38109 21.0315 9.49789C21.4298 9.65256 21.7137 9.83745 22.0122 10.1361C22.3108 10.4348 22.4957 10.7192 22.6507 11.1175C22.7675 11.4179 22.9067 11.8695 22.9446 12.7015C22.9855 13.601 22.9944 13.8713 22.9944 16.1486C22.9944 18.426 22.9855 18.6962 22.9446 19.5958C22.9066 20.4278 22.7675 20.8793 22.6507 21.1798C22.4961 21.578 22.3108 21.8616 22.0122 22.1601C21.7135 22.4587 21.4299 22.6436 21.0315 22.7983C20.7311 22.9156 20.2792 23.0543 19.4472 23.0923C18.5476 23.1332 18.2774 23.1421 15.9989 23.1421C13.7203 23.1421 13.4503 23.1332 12.5507 23.0923C11.7187 23.0539 11.2672 22.9149 10.9662 22.7981C10.568 22.6435 10.2835 22.4586 9.98483 22.1599C9.68616 21.8612 9.50127 21.5775 9.34625 21.1791C9.22945 20.8786 9.09025 20.4271 9.05238 19.5951C9.01149 18.6955 9.00331 18.4253 9.00331 16.1465C9.00331 13.8677 9.01149 13.5989 9.05238 12.6993C9.09042 11.8673 9.22945 11.4158 9.34625 11.115C9.50092 10.7168 9.68616 10.4323 9.98483 10.1336C10.2835 9.83496 10.568 9.65007 10.9662 9.49505C11.267 9.37772 11.7187 9.23905 12.5507 9.20082C13.3379 9.16527 13.643 9.1546 15.2334 9.15282V9.15496ZM20.554 10.5719C19.9887 10.5719 19.53 11.03 19.53 11.5955C19.53 12.1609 19.9887 12.6195 20.554 12.6195C21.1194 12.6195 21.578 12.1609 21.578 11.5955C21.578 11.0302 21.1194 10.5719 20.554 10.5719ZM15.999 11.7683C13.5789 11.7683 11.6167 13.7305 11.6167 16.1506C11.6167 18.5707 13.5789 20.532 15.999 20.532C18.4191 20.532 20.3805 18.5707 20.3805 16.1506C20.3805 13.7305 18.4191 11.7683 15.999 11.7683ZM15.999 13.3061C17.5698 13.3061 18.8434 14.5795 18.8434 16.1506C18.8434 17.7214 17.5698 18.9951 15.999 18.9951C14.4279 18.9951 13.1545 17.7214 13.1545 16.1506C13.1545 14.5795 14.4279 13.3061 15.999 13.3061Z" fill="white"/>
</svg>
