<svg width="32" height="33" viewBox="0 0 32 33" fill="none" xmlns="http://www.w3.org/2000/svg">
<path opacity="0.1" fill-rule="evenodd" clip-rule="evenodd" d="M0 16.1504C0 7.31384 7.16344 0.150391 16 0.150391C24.8366 0.150391 32 7.31384 32 16.1504C32 24.9869 24.8366 32.1504 16 32.1504C7.16344 32.1504 0 24.9869 0 16.1504Z" fill="white"/>
<path fill-rule="evenodd" clip-rule="evenodd" d="M22.6659 10.6504C23.4003 10.8519 23.9786 11.4457 24.1749 12.1997C24.5315 13.5662 24.5315 16.4175 24.5315 16.4175C24.5315 16.4175 24.5315 19.2687 24.1749 20.6354C23.9786 21.3894 23.4003 21.9831 22.6659 22.1847C21.3351 22.5508 15.9982 22.5508 15.9982 22.5508C15.9982 22.5508 10.6613 22.5508 9.33035 22.1847C8.596 21.9831 8.01767 21.3894 7.8214 20.6354C7.46484 19.2687 7.46484 16.4175 7.46484 16.4175C7.46484 16.4175 7.46484 13.5662 7.8214 12.1997C8.01767 11.4457 8.596 10.8519 9.33035 10.6504C10.6613 10.2842 15.9982 10.2842 15.9982 10.2842C15.9982 10.2842 21.3351 10.2842 22.6659 10.6504ZM14.3982 14.0175V19.3508L18.6649 16.6842L14.3982 14.0175Z" fill="white"/>
</svg>
