<svg width="32" height="33" viewBox="0 0 32 33" fill="none" xmlns="http://www.w3.org/2000/svg">
<path opacity="0.1" fill-rule="evenodd" clip-rule="evenodd" d="M0 16.1504C0 7.31384 7.16344 0.150391 16 0.150391C24.8366 0.150391 32 7.31384 32 16.1504C32 24.9869 24.8366 32.1504 16 32.1504C7.16344 32.1504 0 24.9869 0 16.1504Z" fill="white"/>
<path fill-rule="evenodd" clip-rule="evenodd" d="M24.5315 16.1387C24.5315 16.7158 24.4728 17.2921 24.3574 17.8538C24.2448 18.4022 24.0782 18.9406 23.8598 19.4553C23.6465 19.9609 23.3819 20.4481 23.0727 20.9025C22.7681 21.354 22.4173 21.7775 22.0318 22.1637C21.6456 22.5481 21.2205 22.898 20.7693 23.2039C20.3134 23.5109 19.8255 23.7751 19.3196 23.9894C18.8042 24.2066 18.2645 24.3731 17.7166 24.4854C17.1541 24.6011 16.5757 24.6602 15.9978 24.6602C15.4194 24.6602 14.8411 24.6011 14.2794 24.4854C13.7306 24.3731 13.191 24.2066 12.676 23.9894C12.1701 23.7751 11.6817 23.5109 11.2259 23.2039C10.7746 22.898 10.3496 22.5481 9.96416 22.1637C9.57832 21.7775 9.22745 21.354 8.92243 20.9025C8.61492 20.4481 8.34989 19.9609 8.13572 19.4553C7.91735 18.9406 7.75028 18.4022 7.63736 17.8538C7.52319 17.2921 7.46484 16.7158 7.46484 16.1387C7.46484 15.5612 7.52316 14.9836 7.63739 14.4231C7.75032 13.8747 7.91738 13.3355 8.13576 12.8216C8.34992 12.3157 8.61495 11.828 8.92247 11.3736C9.22748 10.9218 9.57835 10.499 9.96419 10.1125C10.3496 9.72798 10.7746 9.37891 11.2259 9.07351C11.6818 8.76517 12.1701 8.50099 12.676 8.28626C13.191 8.06861 13.7306 7.90178 14.2794 7.79029C14.8411 7.67545 15.4195 7.61719 15.9978 7.61719C16.5758 7.61719 17.1541 7.67545 17.7166 7.79029C18.2646 7.90181 18.8042 8.06864 19.3197 8.28626C19.8255 8.50095 20.3134 8.76517 20.7693 9.07351C21.2206 9.37891 21.6456 9.72798 22.0319 10.1125C22.4173 10.499 22.7682 10.9218 23.0728 11.3736C23.3819 11.828 23.6465 12.3157 23.8598 12.8216C24.0782 13.3355 24.2448 13.8747 24.3574 14.4231C24.4728 14.9836 24.5315 15.5612 24.5315 16.1387ZM12.8884 9.55657C10.8562 10.5148 9.33948 12.3847 8.86653 14.6383C9.05865 14.6399 12.0955 14.6782 15.5944 13.7499C14.3331 11.5122 12.9855 9.68601 12.8884 9.55657ZM16.1982 14.8705C12.4459 15.9922 8.84528 15.9115 8.71612 15.9065C8.71402 15.9847 8.71028 16.0604 8.71028 16.1387C8.71028 18.0081 9.41656 19.7124 10.5775 21.0011C10.575 20.9973 12.5693 17.4643 16.5019 16.1944C16.5969 16.1628 16.6936 16.1345 16.7894 16.1071C16.6066 15.6935 16.4069 15.2791 16.1982 14.8705ZM20.8105 10.6771C19.5275 9.5474 17.8429 8.86215 15.9978 8.86215C15.4056 8.86215 14.831 8.93372 14.2806 9.06603C14.3897 9.21251 15.7586 11.0258 17.0049 13.3109C19.7546 12.2815 20.7926 10.7037 20.8105 10.6771ZM17.2862 17.3129C17.27 17.3183 17.2537 17.3229 17.2379 17.3287C12.9381 18.8255 11.534 21.8419 11.5188 21.8749C12.756 22.8356 14.3077 23.4152 15.9978 23.4152C17.007 23.4152 17.9683 23.21 18.8429 22.8385C18.735 22.2027 18.3117 19.9742 17.2862 17.3129ZM20.0701 22.1736C21.7064 21.071 22.8685 19.3201 23.1927 17.292C23.0427 17.2438 21.0038 16.5992 18.6516 16.9758C19.6075 19.5989 19.9959 21.7351 20.0701 22.1736ZM17.5658 14.3953C17.735 14.7423 17.8987 15.0955 18.05 15.4505C18.1038 15.5778 18.1563 15.7026 18.2075 15.8274C20.711 15.5129 23.1773 16.0421 23.2828 16.0637C23.2661 14.3387 22.6481 12.7554 21.6256 11.5159C21.6119 11.5355 20.443 13.2219 17.5658 14.3953Z" fill="white"/>
</svg>
