<svg width="32" height="33" viewBox="0 0 32 33" fill="none" xmlns="http://www.w3.org/2000/svg">
<path opacity="0.1" fill-rule="evenodd" clip-rule="evenodd" d="M0 16.1504C0 7.31384 7.16344 0.150391 16 0.150391C24.8366 0.150391 32 7.31384 32 16.1504C32 24.9869 24.8366 32.1504 16 32.1504C7.16344 32.1504 0 24.9869 0 16.1504Z" fill="white"/>
<path fill-rule="evenodd" clip-rule="evenodd" d="M15.5208 13.155L15.5544 13.7086L14.9948 13.6408C12.9579 13.381 11.1784 12.4997 9.66756 11.0195L8.92891 10.2851L8.73865 10.8275C8.33575 12.0364 8.59316 13.3132 9.43253 14.1719C9.8802 14.6464 9.77948 14.7142 9.00725 14.4318C8.73865 14.3414 8.50363 14.2736 8.48124 14.3075C8.4029 14.3866 8.6715 15.4147 8.88414 15.8215C9.17513 16.3864 9.76828 16.9401 10.4174 17.2677L10.9658 17.5276L10.3167 17.5389C9.68994 17.5389 9.66756 17.5502 9.73471 17.7875C9.95854 18.5219 10.8427 19.3015 11.8276 19.6405L12.5214 19.8777L11.9171 20.2393C11.0218 20.759 9.96973 21.0528 8.91772 21.0754C8.41409 21.0867 8 21.1319 8 21.1658C8 21.2788 9.36538 21.9115 10.16 22.1601C12.5438 22.8945 15.3753 22.5781 17.5017 21.324C19.0126 20.4314 20.5235 18.6575 21.2286 16.9401C21.6091 16.0249 21.9896 14.3527 21.9896 13.5505C21.9896 13.0307 22.0232 12.9629 22.6499 12.3415C23.0192 11.9799 23.3662 11.5845 23.4333 11.4715C23.5452 11.2568 23.534 11.2568 22.9633 11.4489C22.012 11.7879 21.8777 11.7427 22.3477 11.2342C22.6947 10.8727 23.1088 10.2173 23.1088 10.0253C23.1088 9.99137 22.9409 10.0479 22.7506 10.1495C22.5492 10.2625 22.1015 10.432 21.7658 10.5337L21.1614 10.7258L20.613 10.3529C20.3108 10.1495 19.8856 9.92357 19.6617 9.85578C19.0909 9.6976 18.218 9.7202 17.7032 9.90098C16.3042 10.4094 15.4201 11.7201 15.5208 13.155Z" fill="white"/>
</svg>
